<svg id="Layer_1" data-name="Layer 1" xmlns="http://www.w3.org/2000/svg" viewBox="0 0 76.7 106.85"><defs><style>.cls-1,.cls-3{fill:none;}.cls-1,.cls-2,.cls-3{stroke:#231f20;stroke-linejoin:round;}.cls-1{stroke-width:3.5px;}.cls-2{fill:#ec1c24;}.cls-2,.cls-3{stroke-width:1.46px;}</style></defs><path class="cls-1" d="M60.84,72.05a18,18,0,1,1,0,1.2V26.55h-16v36.3l-.08,9.83a34,34,0,1,0,16.12-29Z" transform="translate(-37.85 -16.93)"/><path class="cls-1" d="M60.65,101.52A34,34,0,0,1,44.7,72.68l-.08,1.25v40.22H60.71v-11.8Z" transform="translate(-37.85 -16.93)"/><circle class="cls-1" cx="78.97" cy="72.67" r="18.15" transform="matrix(0.58, -0.81, 0.81, 0.58, -64.01, 77.32)"/><rect class="cls-1" x="1.75" y="1.75" width="26.25" height="7.87"/><rect class="cls-1" x="39.64" y="114.15" width="26.25" height="7.88" transform="translate(67.67 219.25) rotate(-180)"/><line class="cls-2" x1="41.05" y1="50.8" x2="41.05" y2="22.11"/><line class="cls-2" x1="36.55" y1="53.05" x2="25.41" y2="46.86"/><line class="cls-2" x1="36.89" y1="58.34" x2="25.41" y2="65.09"/><circle class="cls-3" cx="41.05" cy="55.75" r="5.25"/><line class="cls-2" x1="41.05" y1="89.27" x2="41.05" y2="60.59"/><line class="cls-2" x1="56.8" y1="63.85" x2="45.66" y2="57.66"/><line class="cls-2" x1="57.48" y1="46.41" x2="46" y2="53.16"/></svg>