<svg id="Layer_1" data-name="Layer 1" xmlns="http://www.w3.org/2000/svg" viewBox="0 0 114.22 251.5"><defs><style>.cls-1{fill:#231f20;}.cls-2,.cls-3,.cls-4{fill:none;stroke:#231f20;stroke-miterlimit:10;}.cls-2{stroke-width:5.66px;}.cls-3{stroke-width:6.6px;}.cls-4{stroke-width:3.5px;}</style></defs><polygon class="cls-1" points="4.32 195.3 4.32 189.56 28.4 180.3 35.15 183.3 4.32 195.3"/><line class="cls-2" x1="4.44" y1="192.43" x2="109.65" y2="192.43"/><polygon class="cls-1" points="4.32 235.57 4.32 229.84 109.73 189.45 109.73 195.19 4.32 235.57"/><polygon class="cls-1" points="4.32 189.45 4.32 195.19 109.73 235.57 109.73 229.84 4.32 189.45"/><polyline class="cls-3" points="4.44 251.5 4.44 150.58 109.65 150.58 109.65 251.5"/><rect class="cls-1" x="41.49" y="185.46" width="30.26" height="4.24"/><line class="cls-2" x1="4.44" y1="232.71" x2="109.65" y2="232.71"/><path class="cls-4" d="M167.9,171.31a61,61,0,0,1-44.44,18.86A62.63,62.63,0,0,1,79,171.31c-2.8-2.81-3.85-7.76-3.85-12.88v-17.3a6.93,6.93,0,1,1,0-13.86h46c1.24,0,2.26-1.51,2.26-2.76s-1-2.77-2.26-2.77h-46V97a6.93,6.93,0,1,1,0-13.86h46c1.24,0,2.26-1.49,2.26-2.74s-1-2.78-2.26-2.78h-46V52.89a6.93,6.93,0,1,1,0-13.86h46c1.24,0,2.26-1.47,2.26-2.72s-1-2.8-2.26-2.8H76.43v-4.8a61.1,61.1,0,0,1,94.37-.11s1.22.82,1.22,8v2.83a6.93,6.93,0,0,1,0,13.86V83.15A6.93,6.93,0,0,1,172,97v30.26a6.93,6.93,0,1,1,0,13.86v17.44C172,162.42,169.71,169.4,167.9,171.31Z" transform="translate(-66.48 -4.62)"/><polygon class="cls-1" points="64.73 172.35 64.73 178.09 109.73 195.3 109.73 189.56 64.73 172.35"/></svg>