<svg id="Layer_1" data-name="Layer 1" xmlns="http://www.w3.org/2000/svg" viewBox="0 0 106.85 76.7"><defs><style>.cls-1,.cls-3{fill:none;}.cls-1,.cls-2,.cls-3{stroke:#231f20;stroke-linejoin:round;}.cls-1{stroke-width:3.5px;}.cls-2{fill:#ec1c24;}.cls-2,.cls-3{stroke-width:1.46px;}</style></defs><path class="cls-1" d="M70.18,82.49a18.17,18.17,0,1,1,1.2,0H24.68v16H61l9.82.07a34,34,0,1,0-29-16.12Z" transform="translate(-15.05 -28.77)"/><path class="cls-1" d="M99.65,82.67a34,34,0,0,1-28.85,16l1.25.08h40.23V82.61h-11.8Z" transform="translate(-15.05 -28.77)"/><circle class="cls-1" cx="70.8" cy="64.35" r="18.15" transform="translate(-37.85 55.38) rotate(-54.22)"/><rect class="cls-1" x="7.61" y="86.66" width="26.25" height="7.87" transform="translate(-84.91 82.56) rotate(-90)"/><rect class="cls-1" x="103.09" y="86.62" width="26.25" height="7.88" transform="translate(191.73 -54.42) rotate(90)"/><line class="cls-2" x1="50.8" y1="35.65" x2="22.11" y2="35.65"/><line class="cls-2" x1="53.05" y1="40.15" x2="46.86" y2="51.29"/><line class="cls-2" x1="58.34" y1="39.81" x2="65.09" y2="51.29"/><circle class="cls-3" cx="55.75" cy="35.65" r="5.25"/><line class="cls-2" x1="89.27" y1="35.65" x2="60.59" y2="35.65"/><line class="cls-2" x1="63.85" y1="19.9" x2="57.66" y2="31.04"/><line class="cls-2" x1="46.41" y1="19.22" x2="53.16" y2="30.7"/></svg>