<svg id="Layer_1" data-name="Layer 1" xmlns="http://www.w3.org/2000/svg" viewBox="0 0 64.7 63.95"><defs><style>.cls-1{fill:none;stroke:#231f20;stroke-linejoin:round;stroke-width:3.5px;}</style></defs><rect class="cls-1" x="20.95" y="1.75" width="23.4" height="12"/><rect class="cls-1" x="12.7" y="43.37" width="23.4" height="12" transform="translate(-41.63 55.85) rotate(-90)"/><rect class="cls-1" x="61.9" y="43.38" width="23.4" height="12" transform="matrix(0, -1, 1, 0, 7.57, 105.05)"/><path class="cls-1" d="M42.4,68.13V62.27c0-3.9-1-6.6-5.7-6.6H30.4V43.07h6.3c4.65,0,5.7-2.7,5.7-6.6V31.68H55.6v4.79c0,3.9,1,6.6,5.7,6.6h6.3V55.67H61.3c-4.65,0-5.7,2.7-5.7,6.6v5.85Z" transform="translate(-16.65 -17.92)"/><rect class="cls-1" x="20.95" y="50.2" width="23.4" height="12"/></svg>