<svg id="Layer_1" data-name="Layer 1" xmlns="http://www.w3.org/2000/svg" viewBox="0 0 64.25 50.79"><defs><style>.cls-1,.cls-2{fill:none;stroke-linejoin:round;}.cls-1,.cls-2,.cls-3,.cls-4{stroke:#231f20;}.cls-1{stroke-width:3.5px;}.cls-2{stroke-width:2.23px;}.cls-3,.cls-4{fill:#fff;stroke-miterlimit:10;}.cls-3{stroke-width:3px;}.cls-4{stroke-width:6px;}</style></defs><rect class="cls-1" x="12.93" y="52.24" width="23.4" height="12" transform="translate(-50.49 61.96) rotate(-90)"/><rect class="cls-1" x="61.68" y="52.24" width="23.4" height="12" transform="translate(-1.74 110.71) rotate(-90)"/><rect class="cls-1" x="13.75" y="29.24" width="36.75" height="16.05"/><circle class="cls-1" cx="32.28" cy="13.34" r="11.59"/><path class="cls-2" d="M57.8,32.78a8.9,8.9,0,0,1,.13,1.46,9,9,0,0,1-.35,2.46" transform="translate(-16.87 -20.91)"/><path class="cls-2" d="M54.12,27.06a8.91,8.91,0,0,1,1.11.94,9.12,9.12,0,0,1,1.5,2" transform="translate(-16.87 -20.91)"/><path class="cls-2" d="M47.24,25.72a7.78,7.78,0,0,1,1.46-.2,8.43,8.43,0,0,1,2.47.22" transform="translate(-16.87 -20.91)"/><path class="cls-2" d="M40.58,32.78a8.9,8.9,0,0,0-.12,1.46,9,9,0,0,0,.34,2.46" transform="translate(-16.87 -20.91)"/><path class="cls-2" d="M44.19,27.06A8.61,8.61,0,0,0,41.58,30" transform="translate(-16.87 -20.91)"/><line class="cls-3" x1="32.28" y1="8.5" x2="32.28" y2="14.46"/><line class="cls-4" x1="32.28" y1="24.59" x2="32.28" y2="30.55"/></svg>