<svg id="Layer_1" data-name="Layer 1" xmlns="http://www.w3.org/2000/svg" viewBox="0 0 137.22 192.36"><defs><style>.cls-1{fill:none;stroke:#231f20;stroke-miterlimit:10;stroke-width:3.5px;}.cls-2{fill:#231f20;}</style></defs><rect class="cls-1" x="119.23" y="147.24" width="11.35" height="133.72" rx="1" transform="translate(-145.49 309.84) rotate(-90)"/><path class="cls-1" d="M171.4,201.92H63.5V45.09c0-7.87,23.4-14.17,50.63-14.17h6.65c27.22,0,50.62,6.3,50.62,14.17Z" transform="translate(-56.29 -29.17)"/><path class="cls-2" d="M173,181.08h9.22V166H173v-6.19h9.22V144.74H173v-6.3h9.22V123.37H173V117h9.22V101.88H173V95.47h9.22V80.39H173v-6.3h9.22V59H173V52.83H184.9c2.25,0,3.49,1,3.49,2.93V203.62H182.2V187.38H173Z" transform="translate(-56.29 -29.17)"/></svg>