<svg id="Layer_1" data-name="Layer 1" xmlns="http://www.w3.org/2000/svg" viewBox="0 0 95.21 133.5"><defs><style>.cls-1,.cls-2,.cls-3,.cls-4,.cls-5{fill:none;stroke:#231f20;}.cls-1{stroke-linejoin:round;}.cls-1,.cls-3,.cls-5{stroke-width:3.5px;}.cls-2,.cls-3{stroke-linecap:round;}.cls-2,.cls-3,.cls-4,.cls-5{stroke-miterlimit:10;}.cls-2,.cls-4{stroke-width:2px;}.cls-6{fill:#231f20;}</style></defs><rect class="cls-1" x="9.66" y="107.77" width="12.7" height="16.05"/><rect class="cls-1" x="22.36" y="66.68" width="50.47" height="65.07" rx="3.93"/><polyline class="cls-2" points="40.81 72.87 30.18 72.87 30.18 125.26 40.81 125.26"/><rect class="cls-3" x="22.36" y="1.75" width="50.61" height="47.37" rx="7.83"/><line class="cls-4" x1="22.51" y1="12.67" x2="72.98" y2="12.67"/><line class="cls-4" x1="22.51" y1="39.53" x2="72.98" y2="39.53"/><line class="cls-4" x1="33.78" y1="12.67" x2="33.78" y2="39.53"/><line class="cls-4" x1="61.47" y1="12.67" x2="61.47" y2="39.53"/><line class="cls-4" x1="42.96" y1="12.67" x2="42.96" y2="39.53"/><line class="cls-4" x1="52.29" y1="12.67" x2="52.29" y2="39.53"/><rect class="cls-5" x="28.86" y="49.12" width="37.78" height="10.62"/><path class="cls-6" d="M77.11,56.69c6,0,5.31,5.9,5.31,5.9h-23s-.74-5.9,5.31-5.9Z" transform="translate(-23.19 -3.6)"/><rect class="cls-1" x="15.76" y="115.45" width="26.25" height="7.87" transform="translate(-113.7 144.67) rotate(-90)"/><rect class="cls-1" x="72.85" y="107.77" width="12.7" height="16.05"/><rect class="cls-1" x="99.59" y="115.45" width="26.25" height="7.87" transform="translate(-29.86 228.51) rotate(-90)"/></svg>